<svg width="93" height="88" viewBox="0 0 93 88" fill="none" xmlns="http://www.w3.org/2000/svg">
<path d="M80.9239 52.9314L80.9435 53.1189C81.7364 56.9509 79.2638 60.7048 75.4162 61.4783L70.135 62.533C73.9827 61.7596 76.4553 58.0252 75.6819 54.1932L75.6428 54.0057C83.0217 51.3455 87.5098 43.6267 85.9088 35.7247C84.3229 27.8185 77.1744 22.4587 69.3618 22.8767L69.3227 22.7088C68.5298 18.8611 64.8149 16.3885 60.9633 17.1619L66.229 16.0877C70.0767 15.3142 73.8148 17.7869 74.5883 21.6346L74.6274 21.8221C82.4399 21.3885 89.5884 26.7479 91.1934 34.6541C92.7754 42.576 88.2837 50.2714 80.9239 52.9314Z" fill="#8F1100"/>
<path d="M70.1309 63.4824C69.6895 63.4824 69.2989 63.1738 69.2052 62.7246C69.1036 62.2129 69.4317 61.7168 69.9434 61.6152C71.5567 61.291 72.9434 60.3613 73.8496 58.9941C74.7559 57.6269 75.0762 55.9941 74.752 54.3847L74.7129 54.1933C74.6231 53.7363 74.877 53.2792 75.3184 53.1191C82.3028 50.5996 86.4554 43.2011 84.9786 35.9121C83.5177 28.6191 76.8106 23.3961 69.4046 23.8181C68.9788 23.8415 68.5335 23.5329 68.4358 23.0798C68.4358 23.0759 68.3968 22.9001 68.3929 22.8962C67.7093 19.5759 64.4593 17.4196 61.1468 18.0837H61.1429C60.635 18.1931 60.1351 17.8572 60.0335 17.3455C59.9319 16.8376 60.26 16.3377 60.7678 16.2361L66.0334 15.1619C68.1506 14.7361 70.2912 15.1579 72.0764 16.3377C73.6936 17.4119 74.8459 18.9979 75.3655 20.8533H75.4944C83.4592 20.8533 90.5104 26.5603 92.1114 34.4623C93.7286 42.5443 89.4825 50.4393 81.9704 53.5363C82.2282 55.3918 81.7907 57.3293 80.7048 58.9699C79.5212 60.759 77.7087 61.9816 75.5993 62.4035L70.3181 63.4621C70.2556 63.4738 70.1934 63.4824 70.1309 63.4824ZM76.7012 54.6113C76.9434 56.5136 76.4981 58.4199 75.4239 60.0371C75.295 60.2324 75.1583 60.4199 75.0138 60.5996L75.2286 60.5567C76.838 60.2324 78.2247 59.2989 79.1309 57.9317C80.0372 56.5645 80.3536 54.9239 80.0176 53.3145L79.9825 53.0293C79.9747 52.9473 79.9786 52.8652 79.9903 52.7832C78.9825 53.502 77.8809 54.1191 76.7012 54.6113ZM75.3926 22.7403C81.084 24.5958 85.5996 29.4122 86.8306 35.5413C88.0767 41.6741 85.7759 47.8773 81.2486 51.7993C87.9283 49.0454 91.7016 42.0259 90.2642 34.8383C88.8384 27.8149 82.5728 22.7443 75.4982 22.7443C75.4631 22.7404 75.4278 22.7403 75.3926 22.7403ZM70.1973 21.9122C71.4317 21.9122 72.6426 22.0489 73.8145 22.3067C73.7598 22.2169 73.7208 22.1153 73.6973 22.006L73.6583 21.8185C73.3341 20.2052 72.4044 18.8185 71.0372 17.9123C69.67 17.006 68.0294 16.6857 66.4122 17.0099L66.1856 17.0568C68.0333 18.0607 69.4825 19.7756 70.0958 21.9123L70.1973 21.9122Z" fill="#8F1100"/>
<path d="M24.7949 72.5134C23.2324 72.5134 21.7011 72.0564 20.3691 71.1696C18.7519 70.0954 17.5996 68.5134 17.08 66.6696H16.998C9.00972 66.6696 1.93602 60.943 0.334017 53.0326C-1.27538 45.0873 3.06452 37.0366 10.479 33.9736C10.022 29.7548 12.7602 25.9463 16.8462 25.1181L60.7722 16.2353C64.9167 15.4033 68.9636 17.9228 70.0925 21.9189H70.2058C78.1785 21.9189 85.2368 27.6337 86.8348 35.5399C88.4403 43.4774 84.1043 51.5359 76.6938 54.6139C76.9204 56.5983 76.4751 58.4537 75.4282 60.0358C74.2407 61.8249 72.4321 63.0436 70.3227 63.4694L26.3967 72.3522C25.8654 72.4577 25.3303 72.5124 24.7951 72.5124L24.7949 72.5134ZM17.8261 64.7595C18.2715 64.7595 18.6621 65.0759 18.7519 65.5173C19.1113 67.3064 20.0449 68.6892 21.416 69.5993C22.7832 70.5095 24.4199 70.8259 26.0293 70.5056L69.9553 61.6228C71.5647 61.2986 72.9514 60.365 73.8615 58.9939C74.7678 57.6267 75.0881 55.99 74.76 54.3806C74.6662 53.9236 74.8889 53.2829 75.3264 53.1267C82.3069 50.5994 86.4594 43.2009 84.9866 35.9157C83.5139 28.6227 76.7952 23.4467 69.4046 23.8297C68.9475 23.8922 68.5218 23.5367 68.428 23.0758C67.721 19.5719 64.4827 17.4156 61.1507 18.0875L17.2247 26.9703C13.9044 27.6422 11.7481 30.8883 12.42 34.2125C12.5138 34.6695 12.2911 35.3102 11.8497 35.4703C4.86531 37.9781 0.712708 45.3687 2.18561 52.6613C3.65831 59.9504 10.3458 65.1223 17.7756 64.7663C17.7912 64.7585 17.8069 64.7585 17.8264 64.7585L17.8261 64.7595Z" fill="#B80000"/>
<path d="M27.006 65.2394C26.213 65.2394 25.4357 65.009 24.7599 64.5636C23.8458 63.9621 23.2247 63.0402 23.006 61.9698L17.7521 36.0008C17.5372 34.9305 17.7521 33.8406 18.3575 32.9305C18.963 32.0243 19.8887 31.4071 20.9591 31.1883L59.3651 23.4227C60.4276 23.2079 61.5135 23.4227 62.4237 24.0204C63.3339 24.622 63.9589 25.5438 64.1737 26.6142L69.4237 52.5792C69.6386 53.6495 69.4237 54.7394 68.8183 55.6456C68.2167 56.5519 67.2949 57.169 66.2324 57.3839L27.8304 65.1495C27.553 65.212 27.2794 65.2394 27.006 65.2394ZM60.174 25.2314C60.0294 25.2314 59.881 25.247 59.7365 25.2744L21.3345 33.04C20.7563 33.1572 20.2564 33.4931 19.9283 33.9814C19.6001 34.4697 19.4868 35.0556 19.604 35.6298L24.854 61.5948C24.9712 62.169 25.3033 62.6651 25.7954 62.9854C26.2837 63.3096 26.8735 63.4268 27.4556 63.3057L65.8576 55.5401C66.428 55.4229 66.924 55.0909 67.2482 54.6065C67.5725 54.1182 67.6897 53.5323 67.5725 52.9542L62.3225 26.9892C62.2053 26.415 61.8732 25.9189 61.3811 25.5947C61.0178 25.3564 60.5997 25.2314 60.174 25.2314Z" fill="#B80000"/>
<path d="M12.467 57.2434C12.0256 57.2434 11.6349 56.9348 11.5412 56.4895L9.31848 45.5095C9.21692 44.9978 9.54504 44.5017 10.0568 44.3962C10.5724 44.2947 11.0646 44.6228 11.1701 45.1345L13.3928 56.1145C13.4943 56.6262 13.1662 57.1223 12.6545 57.2278C12.592 57.2395 12.5295 57.2434 12.467 57.2434Z" fill="#B80000"/>
<path d="M5.86957 52.8644C5.42816 52.8644 5.03754 52.5558 4.94379 52.1066C4.84223 51.5949 5.17035 51.0988 5.68207 50.9972L16.6621 48.7784C17.1816 48.6808 17.6699 49.005 17.7754 49.5167C17.8769 50.0284 17.5488 50.5245 17.0371 50.6261L6.05709 52.8449C5.99068 52.8566 5.92816 52.8644 5.86957 52.8644Z" fill="#B80000"/>
<path d="M72.788 32.5484C72.3466 32.5484 71.9559 32.2398 71.8622 31.7945C71.7606 31.2828 72.0887 30.7867 72.6005 30.6812L75.3583 30.1226C75.8739 30.0211 76.3661 30.3492 76.4716 30.8609C76.5731 31.3726 76.245 31.8687 75.7333 31.9742L72.9755 32.5328C72.913 32.5445 72.8466 32.5484 72.788 32.5484Z" fill="#B80000"/>
<path d="M74.9399 43.2004C74.4985 43.2004 74.1079 42.8918 74.0142 42.4426C73.9126 41.9309 74.2407 41.4348 74.7524 41.3332L77.5102 40.7785C78.0298 40.677 78.518 41.0051 78.6235 41.5168C78.7251 42.0285 78.397 42.5246 77.8853 42.6262L75.1275 43.1809C75.065 43.1926 75.0024 43.2004 74.9399 43.2004Z" fill="#B80000"/>
<path d="M70.952 40.1224C70.5106 40.1224 70.1199 39.8138 70.0262 39.3646L69.3817 36.181C69.2801 35.6693 69.6082 35.1732 70.1199 35.0716C70.6317 34.9701 71.1277 35.2982 71.2332 35.8099L71.8778 38.9935C71.9793 39.5052 71.6512 40.0013 71.1395 40.1029C71.077 40.1146 71.0145 40.1224 70.952 40.1224Z" fill="#B80000"/>
<path d="M80.1739 38.2554C79.7325 38.2554 79.3419 37.9468 79.2482 37.4976L78.6036 34.314C78.5021 33.8023 78.8302 33.3062 79.3419 33.2046C79.8536 33.1031 80.3497 33.4312 80.4552 33.9429L81.0997 37.1265C81.2013 37.6382 80.8732 38.1343 80.3615 38.2359C80.299 38.2515 80.2364 38.2554 80.1739 38.2554Z" fill="#B80000"/>
<path d="M43.7519 55.6464C43.3066 55.6464 42.873 55.5175 42.4981 55.2675C41.9902 54.9316 41.6465 54.412 41.5215 53.8066L41.0567 51.5058C40.8067 50.2714 41.6113 49.0644 42.8457 48.8105L51.084 47.1425C51.6817 47.0253 52.2911 47.1464 52.7989 47.4902C53.2989 47.83 53.6426 48.3456 53.7637 48.9394L54.2285 51.2402C54.3496 51.8417 54.2324 52.4511 53.9004 52.955C53.5684 53.4628 53.0527 53.8065 52.4551 53.9315L44.2168 55.5995C44.0645 55.6308 43.9082 55.6464 43.7519 55.6464ZM51.5098 48.9902C51.4941 48.9902 51.4746 48.9902 51.459 48.9941L43.2207 50.6621C43.0019 50.7051 42.8613 50.9121 42.9082 51.1348L43.373 53.4356C43.4004 53.5762 43.4785 53.6543 43.541 53.6973C43.6035 53.7364 43.705 53.7872 43.8457 53.752L52.084 52.084C52.2637 52.0488 52.416 51.7988 52.3808 51.6192L51.916 49.3145C51.8809 49.1504 51.6855 48.9902 51.5098 48.9902Z" fill="#FF5724"/>
<path d="M33.331 57.7554C32.2646 57.7554 31.3076 57.0054 31.0888 55.9234L28.2724 41.9894C28.0224 40.7472 28.8231 39.5285 30.0576 39.2746L32.3623 38.8098C32.9716 38.6848 33.585 38.8098 34.0928 39.1535C34.5967 39.4934 34.9404 40.0129 35.0615 40.6144L37.8779 54.5484C37.999 55.1539 37.8818 55.7632 37.5459 56.2711C37.2099 56.7789 36.6943 57.1227 36.0889 57.2477L33.7881 57.7125C33.6318 57.7399 33.4794 57.7554 33.331 57.7554ZM32.8153 40.6504C32.788 40.6504 32.7607 40.6543 32.7333 40.6582L30.4325 41.1231C30.2216 41.166 30.077 41.3926 30.1239 41.6153L32.9403 55.5493C32.9833 55.7641 33.202 55.9047 33.413 55.8618L35.7138 55.3969C35.8544 55.3696 35.9325 55.2915 35.9716 55.229C36.0106 55.1665 36.0536 55.0649 36.0263 54.9243L33.2099 40.9903C33.1864 40.877 33.1239 40.7793 33.0341 40.7168C32.9833 40.6856 32.9091 40.6504 32.8153 40.6504Z" fill="#F59E0B"/>
<path d="M51.0409 44.1574C50.6503 44.1574 50.2636 44.0402 49.9276 43.8215C49.4784 43.5246 49.1698 43.0676 49.0644 42.5403L48.2675 38.5989L44.3261 39.3958C43.8026 39.509 43.2597 39.3958 42.8105 39.0989C42.3613 38.802 42.0527 38.345 41.9472 37.8177L41.3769 34.9857C41.2714 34.4583 41.3769 33.9193 41.6777 33.4701C41.9746 33.017 42.4316 32.7123 42.9589 32.6068L51.705 30.8373C52.7988 30.6264 53.8652 31.3256 54.0839 32.4154L55.8534 41.1654C56.0721 42.2552 55.3651 43.3216 54.2753 43.5443L51.4472 44.1146C51.3105 44.1459 51.1738 44.1574 51.0409 44.1574ZM49.0057 36.5441C49.4472 36.5441 49.8378 36.8527 49.9315 37.3019L50.9159 42.1691L53.9003 41.7004L52.2323 32.7981C52.2167 32.7278 52.1503 32.677 52.0761 32.6965L43.33 34.466L43.7987 37.4504L48.8221 36.5676C48.8807 36.5481 48.9432 36.5441 49.0057 36.5441Z" fill="#F01C00"/>
</svg>
