<svg width="88" height="88" viewBox="0 0 88 88" fill="none" xmlns="http://www.w3.org/2000/svg">
<path d="M45.4837 46.6024H41.804C40.4134 46.6024 39.2923 47.7313 39.2923 49.1141V49.3523C39.2923 50.7429 40.4212 51.864 41.804 51.864H45.4837C46.8743 51.864 47.9954 50.7351 47.9954 49.3523V49.1141C47.9954 47.7235 46.8665 46.6024 45.4837 46.6024ZM46.0423 49.3641C46.0423 49.6726 45.7923 49.9226 45.4837 49.9226H41.804C41.4954 49.9226 41.2454 49.6726 41.2454 49.3641V49.1258C41.2454 48.8172 41.4954 48.5672 41.804 48.5672H45.4837C45.7923 48.5672 46.0423 48.8172 46.0423 49.1258V49.3641Z" fill="#FF5724"/>
<path d="M34.5027 46.6024H30.823C29.4324 46.6024 28.3113 47.7313 28.3113 49.1141V49.3523C28.3113 50.7429 29.4402 51.864 30.823 51.864H34.5027C35.8933 51.864 37.0144 50.7351 37.0144 49.3523V49.1141C37.0144 47.7235 35.8855 46.6024 34.5027 46.6024ZM35.0613 49.3641C35.0613 49.6726 34.8113 49.9226 34.5027 49.9226H30.823C30.5144 49.9226 30.2644 49.6726 30.2644 49.3641V49.1258C30.2644 48.8172 30.5144 48.5672 30.823 48.5672H34.5027C34.8113 48.5672 35.0613 48.8172 35.0613 49.1258V49.3641Z" fill="#F59E0B"/>
<path d="M41.7957 33.4414H45.4754C46.866 33.4414 47.9871 32.3124 47.9871 30.9296V30.6914C47.9871 29.3008 46.8582 28.1797 45.4754 28.1797H41.7957C40.4051 28.1797 39.284 29.3086 39.284 30.6914V30.9296C39.284 32.3202 40.4129 33.4414 41.7957 33.4414ZM41.2371 30.6796C41.2371 30.3711 41.4871 30.1211 41.7957 30.1211H45.4754C45.784 30.1211 46.034 30.3711 46.034 30.6796V30.9179C46.034 31.2265 45.784 31.4765 45.4754 31.4765H41.7957C41.4871 31.4765 41.2371 31.2265 41.2371 30.9179V30.6796Z" fill="#FF5724"/>
<path d="M30.8157 33.4414H34.4954C35.886 33.4414 37.0071 32.3124 37.0071 30.9296V30.6914C37.0071 29.3008 35.8782 28.1797 34.4954 28.1797H30.8157C29.4251 28.1797 28.304 29.3086 28.304 30.6914V30.9296C28.304 32.3202 29.4329 33.4414 30.8157 33.4414ZM30.2571 30.6796C30.2571 30.3711 30.5071 30.1211 30.8157 30.1211H34.4954C34.804 30.1211 35.054 30.3711 35.054 30.6796V30.9179C35.054 31.2265 34.804 31.4765 34.4954 31.4765H30.8157C30.5071 31.4765 30.2571 31.2265 30.2571 30.9179V30.6796Z" fill="#F59E0B"/>
<path d="M56.3037 38.4103C56.9326 38.4103 57.4326 38.8986 57.4326 39.5001C57.4326 41.1798 58.8232 42.5509 60.5224 42.5509H61.3622C63.0614 42.5509 64.452 41.1798 64.452 39.5001C64.452 38.8986 64.9638 38.4103 65.5809 38.4103C67.2801 38.4103 68.6707 37.0392 68.6707 35.3595V34.5314C68.6707 32.8517 67.2801 31.4806 65.5809 31.4806C64.952 31.4806 64.452 30.9923 64.452 30.3908C64.452 28.7111 63.0614 27.34 61.3622 27.34H60.5224C58.8232 27.34 57.4326 28.7111 57.4326 30.3908C57.4326 30.9924 56.9209 31.4806 56.3037 31.4806C54.6045 31.4806 53.2139 32.8517 53.2139 34.5314V35.3595C53.2139 37.0392 54.6045 38.4103 56.3037 38.4103ZM55.1748 34.5314C55.1748 33.9299 55.6865 33.4416 56.3037 33.4416C58.0029 33.4416 59.3935 32.0705 59.3935 30.3908C59.3935 29.7893 59.9052 29.301 60.5224 29.301H61.3622C61.9911 29.301 62.4911 29.7893 62.4911 30.3908C62.4911 32.0705 63.8817 33.4416 65.5809 33.4416C66.2098 33.4416 66.7098 33.9299 66.7098 34.5314V35.3596C66.7098 35.9611 66.1981 36.4494 65.5809 36.4494C63.8817 36.4494 62.4911 37.8205 62.4911 39.5002C62.4911 40.1017 61.9794 40.59 61.3622 40.59H60.5224C59.8935 40.59 59.3935 40.1017 59.3935 39.5002C59.3935 37.8205 58.0029 36.4494 56.3037 36.4494C55.6748 36.4494 55.1748 35.9611 55.1748 35.3596V34.5314Z" fill="#F01C00"/>
<path d="M10.7057 38.4103C11.3346 38.4103 11.8346 38.8986 11.8346 39.5001C11.8346 41.1798 13.2252 42.5509 14.9244 42.5509H15.7642C17.4634 42.5509 18.854 41.1798 18.854 39.5001C18.854 38.8986 19.3657 38.4103 19.9829 38.4103C21.6821 38.4103 23.0727 37.0392 23.0727 35.3595V34.5314C23.0727 32.8517 21.6821 31.4806 19.9829 31.4806C19.354 31.4806 18.854 30.9923 18.854 30.3908C18.854 28.7111 17.4634 27.34 15.7642 27.34H14.9244C13.2252 27.34 11.8346 28.7111 11.8346 30.3908C11.8346 30.9924 11.3229 31.4806 10.7057 31.4806C9.00648 31.4806 7.61588 32.8517 7.61588 34.5314V35.3595C7.61588 37.0392 9.00648 38.4103 10.7057 38.4103ZM9.57678 34.5314C9.57678 33.9299 10.0885 33.4416 10.7057 33.4416C12.4049 33.4416 13.7955 32.0705 13.7955 30.3908C13.7955 29.7893 14.3072 29.301 14.9244 29.301H15.7642C16.3931 29.301 16.8931 29.7893 16.8931 30.3908C16.8931 32.0705 18.2837 33.4416 19.9829 33.4416C20.6118 33.4416 21.1118 33.9299 21.1118 34.5314V35.3596C21.1118 35.9611 20.6001 36.4494 19.9829 36.4494C18.2837 36.4494 16.8931 37.8205 16.8931 39.5002C16.8931 40.1017 16.3814 40.59 15.7642 40.59H14.9244C14.2955 40.59 13.7955 40.1017 13.7955 39.5002C13.7955 37.8205 12.4049 36.4494 10.7057 36.4494C10.0768 36.4494 9.57678 35.9611 9.57678 35.3596V34.5314Z" fill="#F01C00"/>
<path d="M83.7957 43.5703C83.0652 42.9688 82.0769 42.8516 81.2176 43.2618C80.3778 43.6602 79.8582 44.4727 79.8582 45.3712V51.4923C79.8582 52.7306 78.698 53.7423 77.2801 53.7423H76.2684C76.3582 50.254 75.2489 46.922 73.0692 44.172C74.8075 41.9806 75.8895 39.4025 76.1981 36.672C76.6786 32.3712 75.37 28.2423 72.4872 25.024C69.577 21.7623 65.3778 19.8951 60.9562 19.8951H42.8272L41.9053 17.4342C41.7647 17.0748 41.5264 16.7623 41.2334 16.524V9.274C41.2334 4.1646 37.0029 0.0122986 31.8037 0.0122986C26.6045 0.0122986 22.3818 4.1607 22.3818 9.274V19.903H15.8935V3.051C15.8935 1.3713 14.5029 0.000198364 12.8037 0.000198364C12.003 0.000198364 11.2334 0.308788 10.624 0.879108C10.0459 1.4377 9.71387 2.23071 9.71387 3.05101V21.078C3.76467 23.4764 -0.114229 29.078 0.00297084 35.238C0.0732838 38.5271 1.23347 41.6989 3.29207 44.2575C1.11237 46.9567 -0.0673292 50.2692 0.00297084 53.6677C0.163131 61.8161 7.03417 68.4377 15.331 68.4377C21.331 68.4377 26.811 64.9689 29.3 59.6096C29.6203 58.9182 30.2609 58.4885 30.9797 58.4885H45.2297C45.9797 58.4885 46.6516 58.8869 46.9289 59.508C49.6984 65.6096 56.1203 69.1291 62.8979 68.3088C64.8667 68.0705 66.726 67.4377 68.4487 66.4807V81.1717C68.4487 84.9334 71.519 87.9998 75.2885 87.9998C79.058 87.9998 82.1283 84.9412 82.1283 81.1717V66.2027C82.7377 65.6519 83.1087 64.8824 83.1087 64.0425V63.062C83.1087 62.5425 82.9681 62.0503 82.7181 61.6128C85.9993 59.4644 87.9993 55.9526 87.9993 52.2026C87.9993 48.9018 86.4602 45.7534 83.7805 43.5542L83.7957 43.5703ZM74.3074 53.7423H73.3465C71.9246 53.7423 70.7684 52.7306 70.7684 51.4923V46.504C71.1082 46.2228 71.4402 45.9337 71.7488 45.633C73.5183 47.9846 74.409 50.8049 74.3191 53.7346L74.3074 53.7423ZM39.8934 17.9493C39.9832 17.9884 40.0536 18.0509 40.0731 18.1212L40.7332 19.8907H35.5535L36.2137 18.129C36.2449 18.0509 36.3035 17.9884 36.4324 17.9376C36.4832 17.9181 36.5418 17.9064 36.6043 17.9064H39.6941C39.7527 17.9064 39.8152 17.9181 39.8933 17.9571L39.8934 17.9493ZM24.3544 19.1993V9.26185C24.3544 5.23065 27.706 1.96105 31.8153 1.96105C35.9246 1.96105 39.2841 5.24225 39.2841 9.26185V15.9532H37.0146V9.68375C37.0146 6.86345 34.6865 4.56265 31.8154 4.56265C28.9443 4.56265 26.6162 6.86345 26.6162 9.68375V11.7423V11.7619V19.9025H24.3545L24.3544 19.1993ZM35.0654 9.67985V16.5196C34.7763 16.7696 34.5341 17.0782 34.3935 17.4415L33.4833 19.8907H28.5732V19.2306V19.211V9.67984C28.5732 7.92984 30.034 6.50794 31.8115 6.50794C33.5927 6.50794 35.0498 7.92984 35.0498 9.67984L35.0654 9.67985ZM11.6864 3.05095C11.6864 2.76189 11.8075 2.48064 11.995 2.28923C12.2255 2.07048 12.5145 1.94939 12.8153 1.94939C13.4442 1.94939 13.9442 2.43767 13.9442 3.05099V19.989C13.1747 20.0788 12.413 20.2195 11.6747 20.4187V3.05168L11.6864 3.05095ZM1.97549 35.1989C1.86611 29.6481 5.51459 24.6089 11.0458 22.6599C12.3075 22.2107 13.6356 21.9412 14.9677 21.8709C15.2177 21.8709 15.4794 21.8514 15.7294 21.8514H60.9484C64.8078 21.8514 68.4796 23.4803 71.0184 26.3319C73.5184 29.1327 74.659 32.7225 74.2372 36.4609C73.9482 39.0625 72.8466 41.5 71.0575 43.5195C70.8583 43.7499 70.6278 43.9687 70.4091 44.1913C70.1708 43.8007 69.831 43.4726 69.3896 43.2695C68.5185 42.8593 67.5302 42.9804 66.8115 43.578C65.3701 44.7694 64.2607 46.2382 63.5615 47.828C63.4716 47.8476 63.3818 47.8593 63.2802 47.8788C63.0693 47.9179 62.8701 47.9491 62.6708 47.9687C61.2997 48.1405 59.9325 48.0976 58.5927 47.8593C54.2216 47.0976 50.5341 44.2812 48.7333 40.3007C48.3427 39.4296 47.5849 38.7304 46.7021 38.4101C46.2607 38.2304 45.7607 38.1288 45.2529 38.1288H31.0029C30.5147 38.1288 30.0342 38.2304 29.6123 38.3984C28.7139 38.7577 27.9639 39.4765 27.5537 40.3672C25.7256 44.3086 22.042 47.1055 17.7139 47.8555C16.1436 48.1367 14.5655 48.1367 12.9951 47.8555C10.0459 47.3438 7.31544 45.836 5.31544 43.6172C3.22564 41.2969 2.04594 38.3086 1.98734 35.207L1.97549 35.1989ZM63.2765 55.9369C62.8077 56.476 62.507 57.1674 62.507 57.9369C62.507 58.5385 61.9952 59.0267 61.3781 59.0267H60.5382C59.9093 59.0267 59.4093 58.5385 59.4093 57.9369C59.4093 56.2572 58.0187 54.8861 56.3195 54.8861C55.6906 54.8861 55.1906 54.3979 55.1906 53.7963V52.9682C55.1906 52.3667 55.7023 51.8784 56.3195 51.8784C57.6398 51.8784 58.7609 51.0581 59.1984 49.9096C59.7883 49.9799 60.3898 50.0307 60.9875 50.0307C61.5891 50.0307 62.1477 49.9917 62.7258 49.9292C62.7571 49.9995 62.7844 50.0698 62.8274 50.1401C62.6868 50.8198 62.6086 51.5112 62.6086 52.2182C62.6086 53.5073 62.8469 54.7573 63.2883 55.9487L63.2765 55.9369ZM19.9955 51.8666C20.6244 51.8666 21.1244 52.3549 21.1244 52.9564V53.7846C21.1244 54.3861 20.6127 54.8744 19.9955 54.8744C18.2963 54.8744 16.9057 56.2455 16.9057 57.9252C16.9057 58.5267 16.394 59.015 15.7768 59.015H14.937C14.308 59.015 13.8081 58.5267 13.8081 57.9252C13.8081 56.2455 12.4175 54.8744 10.7183 54.8744C10.0893 54.8744 9.58935 54.3861 9.58935 53.7846V52.9564C9.58935 52.3549 10.1011 51.8666 10.7183 51.8666C12.0386 51.8666 13.1597 51.0463 13.5972 49.8978C14.7691 50.0268 15.9566 50.0268 17.1284 49.8978C17.5698 51.0462 18.687 51.8666 20.0072 51.8666H19.9955ZM67.5735 64.7376C66.0423 65.6087 64.4016 66.1674 62.6633 66.3783C56.7414 67.1087 51.1323 64.0266 48.7143 58.7063C48.1127 57.386 46.7455 56.5344 45.2338 56.5344H30.9838C29.5033 56.5344 28.183 57.3938 27.5346 58.7845C25.3627 63.4641 20.5737 66.4837 15.3356 66.4837C8.09729 66.4837 2.09759 60.7141 1.95659 53.6246C1.90581 50.7848 2.84721 48.0152 4.61679 45.7144C6.54649 47.5542 8.94489 48.8746 11.527 49.523C11.3161 49.7535 11.027 49.902 10.6872 49.902C8.98795 49.902 7.59735 51.2731 7.59735 52.9528V53.7809C7.59735 55.4606 8.98795 56.8317 10.6872 56.8317C11.3161 56.8317 11.8161 57.32 11.8161 57.9215C11.8161 59.6012 13.2067 60.9723 14.9059 60.9723H15.7457C17.4449 60.9723 18.8355 59.6012 18.8355 57.9215C18.8355 57.3199 19.3472 56.8317 19.9644 56.8317C21.6636 56.8317 23.0542 55.4606 23.0542 53.7809V52.9528C23.0542 51.2731 21.6636 49.902 19.9644 49.902C19.6128 49.902 19.316 49.7418 19.105 49.5035C23.5738 48.3941 27.3433 45.3551 29.285 41.1637C29.4647 40.7731 29.7733 40.4528 30.1639 40.2536H46.0739C46.4528 40.4254 46.7458 40.7028 46.9138 41.0739C48.8357 45.3044 52.6052 48.3942 57.1248 49.5231C56.9138 49.7535 56.6248 49.902 56.2849 49.902C54.5857 49.902 53.1951 51.2731 53.1951 52.9528V53.7809C53.1951 55.4606 54.5857 56.8317 56.2849 56.8317C56.9138 56.8317 57.4138 57.32 57.4138 57.9215C57.4138 59.6012 58.8044 60.9723 60.5036 60.9723H61.3435C62.9451 60.9723 64.2537 59.7535 64.4021 58.2106C65.2927 59.5504 66.4724 60.7223 67.8435 61.609C67.5935 62.0387 67.4646 62.5387 67.4646 63.0504V64.0309C67.4646 64.2691 67.5036 64.4996 67.5544 64.7301L67.5735 64.7376ZM80.1945 81.1676C80.1945 83.859 78.0031 86.0387 75.3039 86.0387C72.6047 86.0387 70.4133 83.859 70.4133 81.1676V66.9687H80.1945V81.1676ZM81.175 64.0387C81.175 64.3902 80.9953 64.7105 80.6867 64.8902C80.5461 64.9683 80.3781 65.0191 80.2062 65.0191H70.425C70.2531 65.0191 70.0852 64.9683 69.9367 64.8902C69.8156 64.8199 69.7063 64.7183 69.6281 64.6012C69.507 64.4293 69.4485 64.2496 69.4485 64.0504V63.0699C69.4485 62.7301 69.6281 62.4215 69.9094 62.2418C70.0695 62.1519 70.2492 62.1011 70.4211 62.1011H80.2023C80.382 62.1011 80.5617 62.1519 80.6906 62.2301C80.9914 62.4215 81.1711 62.7418 81.1711 63.0816V64.0621L81.175 64.0387ZM81.1242 60.3004C80.8234 60.1988 80.5148 60.1285 80.1945 60.1285H70.4133C70.093 60.1285 69.7727 60.1988 69.4719 60.3082C67.6203 59.2379 66.1516 57.6598 65.3235 55.8082C64.8118 54.6793 64.554 53.4684 64.554 52.2066C64.554 51.5073 64.6321 50.8355 64.7844 50.1871C64.9055 49.7066 65.0149 49.3472 65.1633 49.0074C65.7336 47.5191 66.7336 46.1558 68.0539 45.0777C68.2649 44.9058 68.4953 44.9995 68.5657 45.0269C68.6555 45.0659 68.8039 45.1675 68.8039 45.3667V51.4878C68.8039 53.8081 70.843 55.687 73.343 55.687H77.2727C79.7727 55.687 81.8118 53.7964 81.8118 51.4878V45.3667C81.8118 45.1675 81.9603 45.0659 82.0501 45.0269C82.1204 44.9956 82.3509 44.9058 82.5618 45.0777C84.7923 46.898 86.0618 49.4996 86.0618 52.2066C86.0618 55.4683 84.1907 58.5074 81.1204 60.2964L81.1242 60.3004Z" fill="#B80000"/>
</svg>
